# xmcd
#
# Track frame offsets:
#	187
#	26389
#	50122
#	73009
#	93722
#	119284
#	143819
#	161462
#	178917
#	210479
#	230959
#
# Disc length: 3420 seconds
#
# Revision: 1
# Processed by: cddbd v1.5.1PL0 Copyright (c) Steve Scherf et al.
# Submitted via: CDex 1.50Beta5
#
DISCID=a20d5a0b
DTITLE=世良譲 - 世良譲と仲間たち
DYEAR=1996
DGENRE=Jazz
TTITLE0=エブリシング・ハプンズ・トゥ・ミー
TTITLE1=五つの銅貨
TTITLE2=L-O-V-E
TTITLE3=ストライク・アップ・ザ・バンド
TTITLE4=時の過ぎゆくままに
TTITLE5=ライク・イット・イズ
TTITLE6=キスヘの前奏曲
TTITLE7=プリーチャー
TTITLE8=マックス・ブルース
TTITLE9=セカンド・タイム・アラウンド
TTITLE10=スプリング・イズ・ヒア
EXTD=
EXTT0=
EXTT1=
EXTT2=
EXTT3=
EXTT4=
EXTT5=
EXTT6=
EXTT7=
EXTT8=
EXTT9=
EXTT10=
PLAYORDER=
